<svg id="Layer_1" data-name="Layer 1" xmlns="http://www.w3.org/2000/svg" viewBox="0 0 23.32 20.12"><defs><style>.cls-1{fill:#e8102f;}</style></defs><title>love</title><path class="cls-1" d="M5.51,3.29c2.13,0,4.48,1.18,6.61,3.3l.18.18.17-.18a9.39,9.39,0,0,1,6.34-3.12A4.6,4.6,0,0,1,23.24,6.3c1,2.47,0,5.57-2.74,8.31l-8.2,8.2-8.2-8.2C1.23,11.75.14,8.54,1.17,6A4.51,4.51,0,0,1,5.51,3.29m0-.25C.61,3-1.91,9,3.92,14.79l8.38,8.38,8.37-8.38c5.68-5.67,3-11.57-1.86-11.57-1.95,0-4.25.93-6.51,3.2C9.91,4,7.51,3,5.51,3Z" transform="translate(-0.55 -3.04)"/></svg>